<?xml version="1.0" encoding="UTF-8"?>
<svg xmlns="http://www.w3.org/2000/svg" xmlns:xlink="http://www.w3.org/1999/xlink" viewBox="0 0 413.09 206.46">
  <defs>
    <style>
      .cls-1 {
        fill: #9b8bd6;
        mix-blend-mode: multiply;
        opacity: .3;
      }

      .cls-2 {
        isolation: isolate;
      }

      .cls-3 {
        fill: url(#_鍊踑臇_蜸馯鳺艜_43);
      }
    </style>
    <linearGradient id="_鍊踑臇_蜸馯鳺艜_43" data-name="鍊踑臇 蜸馯鳺艜 43" x1="269.99" y1="48.34" x2="112.93" y2="237.67" gradientUnits="userSpaceOnUse">
      <stop offset="0" stop-color="#bbd2f1"/>
      <stop offset="1" stop-color="#879ad1"/>
    </linearGradient>
  </defs>
  <g class="cls-2">
    <g id="_圖層_2" data-name="圖層 2">
      <g id="_栝鍣_1" data-name="栝鍣 1">
        <g>
          <polygon class="cls-3" points="413.09 206.46 0 203.41 .2 151.2 .61 42.46 55.11 .95 56.35 0 68.12 5.62 97.61 50.25 111.31 47.46 115.87 53.29 120.96 53.29 171.7 116.18 196.27 134.95 200.84 134.95 291.6 107.3 410.1 188.45 413.09 206.46"/>
          <polygon class="cls-1" points="225.07 150.16 223.49 156.25 230.68 160.05 253.68 146.36 252.98 152.19 241.22 175.27 234.72 182.62 264.74 196.82 134.13 200.37 77.23 197.43 65.48 196.82 33.88 139.92 60.74 100.24 97.61 50.25 111.3 47.97 108.67 57.6 131.85 117.19 129.21 121.25 143.26 154.98 152.03 152.19 166.25 141.79 192.24 133.95 187.4 128.66 187.41 128.66 196.27 134.95 200.84 134.95 241.61 122.53 241.61 122.53 279.17 111.09 271.59 116.18 261.76 125.31 225.07 150.16"/>
          <polygon class="cls-1" points="188.9 174 204.18 167.66 204.18 169.69 188.9 180.34 188.9 192 77.23 197.43 78.48 174.5 100.24 171.46 131.85 181.1 182.05 160.05 192.41 139.51 194.87 136.72 187.41 128.66 196.27 134.95 200.84 134.95 241.61 122.53 196.45 145.34 186.79 162.33 188.9 174"/>
          <polygon class="cls-1" points="97.61 49.16 87.43 94.8 104.81 86.02 105.86 89.71 68.12 138.87 61.97 159.93 48.45 170.82 41.96 126.4 97.61 49.16"/>
          <polygon class="cls-1" points="129.21 121.14 96.91 131.84 131.85 117.27 129.21 121.14"/>
          <polygon class="cls-1" points="70.93 18.64 55.18 24.64 52.74 59.33 32.86 97.02 30.43 124.21 .2 151.2 .61 42.46 55.11 .95 53.49 22.39 70.93 18.64"/>
        </g>
      </g>
    </g>
  </g>
</svg>
