<?xml version="1.0" encoding="UTF-8"?>
<svg xmlns="http://www.w3.org/2000/svg" xmlns:xlink="http://www.w3.org/1999/xlink" viewBox="0 0 294.59 196.48">
  <defs>
    <style>
      .cls-1 {
        opacity: .3;
      }

      .cls-1, .cls-2 {
        fill: #9b8bd6;
        mix-blend-mode: multiply;
      }

      .cls-3 {
        isolation: isolate;
      }

      .cls-2 {
        opacity: .5;
      }

      .cls-4 {
        fill: url(#linear-gradient);
      }
    </style>
    <linearGradient id="linear-gradient" x1="274.81" y1="5.5" x2="127.12" y2="168.97" gradientUnits="userSpaceOnUse">
      <stop offset="0" stop-color="#9abff1"/>
      <stop offset="1" stop-color="#4e4fbd"/>
    </linearGradient>
  </defs>
  <g class="cls-3">
    <g id="_圖層_2" data-name="圖層 2">
      <g id="_栝鍣_1" data-name="栝鍣 1">
        <g>
          <polygon class="cls-4" points="294.59 194.47 56.84 191.6 56.88 173.54 0 143.16 57.19 39.99 88.56 .89 89.06 .26 89.27 0 96.04 5.29 113.02 47.33 113.18 47.28 120.37 44.88 120.9 44.7 123.53 50.2 126.46 50.2 155.66 109.43 169.8 127.11 172.43 127.11 224.67 101.07 292.87 177.5 294.59 194.47"/>
          <path class="cls-2" d="M122.72,115.03l-1.5-9.9,5.11,3.99-10.23-48.85,2.59-2,4.43,4.21-2.76-17.6-.03-.22-7.15,2.61-.14,.05-26.64,39.07-3.76-34.93,2.38-2.14,1.7-3.62,2.32,5.76-2.32-21.29,2.32-3.7,3.2,2.66L89.06,.26l-.51,.63-31.37,39.1-24.65,43.67,24.41,58.77-.07,31.12,53.78-26.43,3.41,2.22-5.79-61.05,2.39-.67,12.07,27.42Zm-46.15-14.22l-15.53,22.78,1.28-69.09,2.78-1.08,3.15,10.98,9-8.09c-.2,11.64-.57,33.59-.68,44.5Z"/>
          <polygon class="cls-1" points="140.93 186.28 140.93 183.76 132.41 183.76 121.91 178.74 124.91 174.6 124.97 169.5 130.22 121.02 138.63 152.89 143.98 150.65 152.52 139.94 155.02 137.13 150.27 125.97 157.63 134.2 160.29 131.21 172.42 127.08 180.62 122.94 223.83 101.13 226.08 134.17 222.74 134.17 223.55 141.93 218.99 149.77 228.26 173.71 216.4 183.4 277.55 191.45 288.32 196.33 124.91 195.44 140.93 186.28"/>
          <polygon class="cls-1" points="222.74 134.17 161.72 150.65 156.54 149.77 223.55 127.22 225.52 125.94 226.08 134.17 222.74 134.17"/>
          <polygon class="cls-1" points="217.83 151.47 176.99 173.57 228.26 173.71 217.83 151.47"/>
          <polygon class="cls-1" points="214.28 184.5 203.1 195.29 135.68 196.48 147.27 187.68 201.19 184.36 201.19 182.73 220.28 179.26 214.28 184.5"/>
          <polygon class="cls-1" points="105.75 62.03 118.7 58.27 122.67 62.03 121.91 55.9 104.3 60.15 86.86 85.75 69.14 113.55 62.32 134.17 51.14 123.6 45.89 160.11 71.12 147.77 110.66 147.11 114.07 148.95 113.32 144.15 71.39 138.24 73.57 127.15 80.12 123.01 82.09 117.76 74.87 120.05 86.32 91.3 108.27 88.49 110.66 87.61 122.46 114.44 121.22 105.12 118.97 104.16 111.61 83.25 95.39 81.92 105.75 62.03"/>
          <polygon class="cls-1" points="89.05 26.48 68.46 30.18 91.61 24.11 92.25 29.14 89.05 26.48"/>
          <polygon class="cls-1" points="86.73 45.7 54.62 50.8 54.62 47.25 86.73 37.2 88.97 50.8 86.73 45.7"/>
          <polygon class="cls-1" points="76.69 91.57 80.12 53.17 66.69 55.31 77.25 55.9 76.69 91.57"/>
          <polygon class="cls-2" points="180.33 129.22 151.08 148.44 156.54 149.77 172.7 154.2 161.72 175.71 140.93 183.4 138.59 183.76 132.41 183.76 121.91 178.74 124.91 174.6 136.48 160.08 130.09 120.05 132.47 117.02 144.84 149.57 152.52 139.94 155.02 137.13 149.93 125.08 151.36 125.97 144.34 113.7 158.41 133.33 160.29 131.21 172.42 127.08 180.62 122.94 182.85 123.01 180.33 129.22"/>
        </g>
      </g>
    </g>
  </g>
</svg>
